# xmcd CD database file
#
# Track frame offsets:
#	150
#	16232
#	35940
#	66430
#	89125
#	105607
#	129775
#	147032
#	173517
#	182795
#	197797
#	226392
#	264072
#	320710
#
# Disc length: 4604 seconds
#
# Revision: 0
# Processed by: cddbd v1.5.1PL0 Copyright (c) Steve Scherf et al.
# Submitted via: CDex 1.51
#
DISCID=c211fa0e
DTITLE=Ralph Sutton - Eye Opener
DYEAR=1990
DGENRE=Jazz
TTITLE0=Rippling Waters
TTITLE1=Viper's Drag
TTITLE2=Medley: Memories Of You - Taking A Chance On Love
TTITLE3=Gone With The Wind
TTITLE4=I've Found A New Baby
TTITLE5=Medley: Clothes Line Ballet/I Can't Believe That/You're In Love With Me
TTITLE6=Honey, Hush
TTITLE7=When I Grow Too Old To Dream
TTITLE8=Eye Opener
TTITLE9=June Night
TTITLE10=Old Fashioned Love
TTITLE11=Honeysuckle Rose
TTITLE12=Willard Robinson Medley: Old Folks/Share Croppin' Blues/Tain't So, Honey
TTITLE13=Alligator Crawl
EXTD=YEAR: 1990
EXTT0=
EXTT1=
EXTT2=
EXTT3=
EXTT4=
EXTT5=
EXTT6=
EXTT7=
EXTT8=
EXTT9=
EXTT10=
EXTT11=
EXTT12=
EXTT13=
PLAYORDER=
